<?xml version="1.0" encoding="UTF-8"?><svg id="_イヤー_2" xmlns="http://www.w3.org/2000/svg" viewBox="0 0 349.64 508.74"><defs><style>.cls-1,.cls-2{fill:none;stroke:#7ca9bc;stroke-miterlimit:10;stroke-width:5px;}.cls-1,.cls-3{fill-rule:evenodd;}.cls-3{fill:#7ca9bc;}</style></defs><g id="_イヤー_7"><path class="cls-2" d="M231.45,212.18c30.77,1.75,27.45-3.15,37.18-10.98,17.88-14.39,14.72-24.38,33.56-31.7,13.65-5.31,39.27,.48,43.65,5.04,3.67,3.83-1.02,15.13-6.67,19.45-3.52,2.69-14.55-8.07-21.2-7.31-6.39,.73-15.64,10.95-18.14,14.1-22.46,34.97-36.6,37.17-67.39,35.36"/><path class="cls-2" d="M126.48,384.32c15.68,.22,19.04-5.84,23.19-11.38"/><path class="cls-2" d="M123.19,377.47c11,.35,15.08-.56,16.85-4.53"/><path class="cls-2" d="M137.34,385.42c9.59,.07,13.81-4.15,14.07-7.37"/><path class="cls-1" d="M168.06,126.4C60.92,60.88,68.15-13.01,184.08,84.68"/><path class="cls-1" d="M184.49,85.65c-17.43-40.49-22.13-77.37-10.49-82.37,20.49-10.15,65.59,81.93,67.87,112.83"/><path class="cls-1" d="M157.08,165.84c-5.22-3.78-2.33-29.72,9.84-40.12"/><path class="cls-2" d="M241.7,115.15c12.49,5.55,16.6,7.78,24.84,22.11,26.85,28.29,10,63.61-28.88,64.16"/><path class="cls-2" d="M50.56,438.22c12.56-7.74,21.69-31.8,17.8-40.99"/><path class="cls-1" d="M5.8,420.21c-1.09,3.16,.47,16.45,2.85,19.5"/><path class="cls-1" d="M19.2,266.13c-12.5,33-15.71,88.27-10.93,108.08,2.68,11.08,5.25,16.09,4.04,20.2"/><path class="cls-2" d="M158.06,165.84c-21.61,22.17-27.96,14.23-49.87,23.16-6.63,2.7-15.13,7.45-20.36,9.91"/><path class="cls-2" d="M150.56,382c14.53,8.04,24.15,22.01,31.49,29.66,8.35,8.7,1.23,37.71,6.42,44.64,8.66,11.55,27.78,3.48,36.38-3.97,24.21-20.99,47.08-29.35,56.56-37.61,4.86-4.23-9.52-11.52-20.79-7.03-12.3,3.86-26.24,15.15-42.5,13.45-20.14-6.38-22.52-63.21-28.33-78.27-6.05-14.26-45.52-16.66-52.28-18.96"/><path class="cls-2" d="M180.65,208.34c107.26,25.12,19.48,97.39,127.67,83.24,13.44-3.98,24.48-5.29,33.07,.46,4.1,2.74-1.11,20.08-9.28,16.97-9.63-3.67-62.19,10.89-64.2,10.78-20.04-1.14-29.25-6.5-36.23-19.51-24.5-30.01-48.18-32.62-78.27-29.25"/><path class="cls-2" d="M158.82,300.27c-29.33,29.07-29.08,24.3-42.4,36.48-16.23,22.23,32.9,63.17,19.26,100.89-34.61,76.67-13.43,38.39,23.62,55.87,2.62,2.2,6.04,13.15-1.65,12.72-22.32-1.25-40.31,1.73-73.33-2.55-4.18-.54-7.57-6.4-6.42-11.46,2.3-10.17,10.17-9.35,12.84-12.38,6.75-7.68,22.62-33.94,7.95-54.42"/><path class="cls-2" d="M180.65,272.31c-7.81,10.37-17.51,22.66-21.83,27.96"/><path class="cls-2" d="M238.36,202.1c-8.27,11.57-16.8,22.15-17.69,23.32"/><path class="cls-2" d="M35.47,230.02c7-4.47,14.9-8.02,24.13-10.47l-.33,.15"/><path class="cls-2" d="M49.6,219.55c4.3-4.13,10.97-5.14,16.51-7.02"/><path class="cls-2" d="M61.62,210.18c8.04-5.75,16.6-9.78,26.22-11.27"/><path class="cls-2" d="M27.91,243.39c6.4-5.3,13.79-9.81,22.64-13.38l-.31,.19"/><path class="cls-2" d="M10.61,267.23c6.4-5.3,13.79-9.81,22.64-13.38"/><path class="cls-2" d="M21.93,255.49c3.72-4.26,8.11-8.17,13.52-11.85"/><path class="cls-2" d="M39.95,442.53c-.42,2.65-2.02,7.81-12.48,11.02"/><path class="cls-2" d="M27.48,448.88c-1.99,3.39-.25,4.15-7.6,9.35"/><path class="cls-1" d="M11.24,432.78c.35,4.34-3.28,4.42,.97,19.51"/><path class="cls-2" d="M49.71,431.2c.73,2.29,3.56,4.92-8.83,14.65"/><path class="cls-1" d="M15.9,448c-.29,2.7-1.44,6.39,1.37,13.21"/><path class="cls-1" d="M5.18,403.52c3.49-6.01,6.61-7.17,9.01-9.12"/><path class="cls-1" d="M4.32,412.69c1.05-4.4,2.81-5.52,3.96-7.09"/><path class="cls-1" d="M2.37,422.34c1.96-5.88,4.08-8.41,5.63-11.04"/><path class="cls-2" d="M65.92,429.53c15.68,.22,27.48-7,31.62-12.53"/><path class="cls-2" d="M63.95,424.56c11,.35,17.77-4.76,19.54-8.73"/><path class="cls-2" d="M85.83,428.27c9.59,.07,13.81-4.15,14.07-7.37"/><path class="cls-2" d="M154.1,506.43c-.12-7.12-3.54-10.76-6.09-11.34"/><path class="cls-2" d="M158.8,505.82c.16-7.51-3.14-10.96-5.69-11.28"/><path class="cls-2" d="M275.75,418.27c-4.67-5.37-9.63-5.96-11.96-4.76"/><path class="cls-2" d="M278.96,414.77c-4.71-5.85-9.46-6.37-11.62-4.98"/><path class="cls-3" d="M168.22,38.13c-3.38-18.49-2.08-31.83,4.59-34.7,5.39-2.32,13.35,2.62,22.08,12.62"/><path class="cls-2" d="M57.56,263.36c.91-1.59,7.78-14.58,8.78-16.01,2.29-3.28,11.74-12.69,16.47-15.33l-.34,.44"/><path class="cls-2" d="M74.73,232.02c4.27-6.98,12.63-9.68,19.51-13.19"/><path class="cls-2" d="M82.81,220.92c8.21-5.98,17.75-10.78,28.96-13.71l-.4,.19"/><path class="cls-1" d="M293.13,100.73c-.38,2.21-2.83,19.97-3.4,22.06-1.29,4.8-8.49,20.26-13.05,25.8"/><path class="cls-1" d="M306.15,133.23c-.95,1.57-8.15,14.38-9.18,15.78-2.37,3.22-12.05,12.4-16.85,14.91"/><path class="cls-2" d="M228.77,179.03c-2.87,.69-25.71,6.95-28.48,7.36-6.35,.94-27.66,.25-35.84-2.39"/><path class="cls-2" d="M228.25,189.2c-1.52,1.01-13.48,9.56-15.01,10.39-3.51,1.91-16.18,6.1-21.59,6.34"/><path class="cls-2" d="M332.38,308.55c.51-5.85-1.82-8.55-3.75-8.8"/><path class="cls-2" d="M339.65,305.68c.63-6.48-1.82-9.23-3.87-9.33"/><path class="cls-2" d="M334.79,193.69c1.31-5.72-.64-8.72-2.51-9.23"/><path class="cls-2" d="M341.79,189.98c.63-6.48-1.82-9.23-3.87-9.33"/><path class="cls-3" d="M128.48,45.39c-17.13-7.74-30.39-9.69-34.78-3.91-3.55,4.68-.68,13.59,6.93,24.47"/></g></svg>